<svg width="277" height="197" viewBox="0 0 277 197" fill="none" xmlns="http://www.w3.org/2000/svg">
<path d="M40 42C40 40.8954 40.8954 40 42 40H235C236.105 40 237 40.8954 237 42V155C237 156.105 236.105 157 235 157H42C40.8954 157 40 156.105 40 155V42Z" fill="white"/>
<path d="M42 156.5C41.1716 156.5 40.5 155.828 40.5 155H39.5C39.5 156.381 40.6193 157.5 42 157.5V156.5ZM40.5 155V150.292H39.5V155H40.5ZM40.5 145.583V136.167H39.5V145.583H40.5ZM40.5 131.458V122.042H39.5V131.458H40.5ZM40.5 117.333V107.917H39.5V117.333H40.5ZM40.5 103.208V93.7917H39.5V103.208H40.5ZM40.5 89.0833V79.6667H39.5V89.0833H40.5ZM40.5 74.9583V65.5417H39.5V74.9583H40.5ZM40.5 60.8333V51.4167H39.5V60.8333H40.5ZM40.5 46.7083V42H39.5V46.7083H40.5ZM40.5 42C40.5 41.1716 41.1716 40.5 42 40.5V39.5C40.6193 39.5 39.5 40.6193 39.5 42H40.5ZM42 40.5H46.9487V39.5H42V40.5ZM51.8974 40.5H61.7949V39.5H51.8974V40.5ZM66.7436 40.5H76.641V39.5H66.7436V40.5ZM81.5897 40.5H91.4872V39.5H81.5897V40.5ZM96.4359 40.5H106.333V39.5H96.4359V40.5ZM111.282 40.5H121.179V39.5H111.282V40.5ZM126.128 40.5H136.026V39.5H126.128V40.5ZM140.974 40.5H150.872V39.5H140.974V40.5ZM155.821 40.5H165.718V39.5H155.821V40.5ZM170.667 40.5H180.564V39.5H170.667V40.5ZM185.513 40.5H195.41V39.5H185.513V40.5ZM200.359 40.5H210.256V39.5H200.359V40.5ZM215.205 40.5H225.103V39.5H215.205V40.5ZM230.051 40.5H235V39.5H230.051V40.5ZM235 40.5C235.828 40.5 236.5 41.1716 236.5 42H237.5C237.5 40.6193 236.381 39.5 235 39.5V40.5ZM236.5 42V46.7083H237.5V42H236.5ZM236.5 51.4167V60.8333H237.5V51.4167H236.5ZM236.5 65.5417V74.9583H237.5V65.5417H236.5ZM236.5 79.6667V89.0833H237.5V79.6667H236.5ZM236.5 93.7917V103.208H237.5V93.7917H236.5ZM236.5 107.917V117.333H237.5V107.917H236.5ZM236.5 122.042V131.458H237.5V122.042H236.5ZM236.5 136.167V145.583H237.5V136.167H236.5ZM236.5 150.292V155H237.5V150.292H236.5ZM236.5 155C236.5 155.828 235.828 156.5 235 156.5V157.5C236.381 157.5 237.5 156.381 237.5 155H236.5ZM235 156.5H230.051V157.5H235V156.5ZM225.103 156.5H215.205V157.5H225.103V156.5ZM210.256 156.5H200.359V157.5H210.256V156.5ZM195.41 156.5H185.513V157.5H195.41V156.5ZM180.564 156.5H170.667V157.5H180.564V156.5ZM165.718 156.5H155.821V157.5H165.718V156.5ZM150.872 156.5H140.974V157.5H150.872V156.5ZM136.026 156.5H126.128V157.5H136.026V156.5ZM121.179 156.5H111.282V157.5H121.179V156.5ZM106.333 156.5H96.4359V157.5H106.333V156.5ZM91.4872 156.5H81.5898V157.5H91.4872V156.5ZM76.641 156.5H66.7436V157.5H76.641V156.5ZM61.7949 156.5H51.8975V157.5H61.7949V156.5ZM46.9487 156.5H42V157.5H46.9487V156.5ZM42 156C41.4477 156 41 155.552 41 155H39C39 156.657 40.3431 158 42 158V156ZM41 155V150.292H39V155H41ZM41 145.583V136.167H39V145.583H41ZM41 131.458V122.042H39V131.458H41ZM41 117.333V107.917H39V117.333H41ZM41 103.208V93.7917H39V103.208H41ZM41 89.0833V79.6667H39V89.0833H41ZM41 74.9583V65.5417H39V74.9583H41ZM41 60.8333V51.4167H39V60.8333H41ZM41 46.7083V42H39V46.7083H41ZM41 42C41 41.4477 41.4477 41 42 41V39C40.3431 39 39 40.3431 39 42H41ZM42 41H46.9487V39H42V41ZM51.8974 41H61.7949V39H51.8974V41ZM66.7436 41H76.641V39H66.7436V41ZM81.5897 41H91.4872V39H81.5897V41ZM96.4359 41H106.333V39H96.4359V41ZM111.282 41H121.179V39H111.282V41ZM126.128 41H136.026V39H126.128V41ZM140.974 41H150.872V39H140.974V41ZM155.821 41H165.718V39H155.821V41ZM170.667 41H180.564V39H170.667V41ZM185.513 41H195.41V39H185.513V41ZM200.359 41H210.256V39H200.359V41ZM215.205 41H225.103V39H215.205V41ZM230.051 41H235V39H230.051V41ZM235 41C235.552 41 236 41.4477 236 42H238C238 40.3431 236.657 39 235 39V41ZM236 42V46.7083H238V42H236ZM236 51.4167V60.8333H238V51.4167H236ZM236 65.5417V74.9583H238V65.5417H236ZM236 79.6667V89.0833H238V79.6667H236ZM236 93.7917V103.208H238V93.7917H236ZM236 107.917V117.333H238V107.917H236ZM236 122.042V131.458H238V122.042H236ZM236 136.167V145.583H238V136.167H236ZM236 150.292V155H238V150.292H236ZM236 155C236 155.552 235.552 156 235 156V158C236.657 158 238 156.657 238 155H236ZM235 156H230.051V158H235V156ZM225.103 156H215.205V158H225.103V156ZM210.256 156H200.359V158H210.256V156ZM195.41 156H185.513V158H195.41V156ZM180.564 156H170.667V158H180.564V156ZM165.718 156H155.821V158H165.718V156ZM150.872 156H140.974V158H150.872V156ZM136.026 156H126.128V158H136.026V156ZM121.179 156H111.282V158H121.179V156ZM106.333 156H96.4359V158H106.333V156ZM91.4872 156H81.5898V158H91.4872V156ZM76.641 156H66.7436V158H76.641V156ZM61.7949 156H51.8975V158H61.7949V156ZM46.9487 156H42V158H46.9487V156Z" fill="#9747FF"/>
<rect x="88.0676" y="106.545" width="11.6506" height="3.21396" transform="rotate(135 88.0676 106.545)" fill="#212121"/>
<path d="M89.2035 103.136C89.8311 103.764 89.8311 104.781 89.2035 105.409L88.6354 105.977L86.3628 103.704L86.9309 103.136C87.5585 102.509 88.576 102.509 89.2035 103.136Z" fill="#212121"/>
<path d="M76.5402 115.154L77.5567 112.511L79.8293 114.783L77.1864 115.8C76.782 115.956 76.3847 115.558 76.5402 115.154Z" fill="#212121"/>
<path d="M130.951 101.057C132.407 100.843 134.006 101.202 135.429 102.573C137.732 104.792 137.304 108.239 135.425 110.069L126.5 118.603L117.574 110.069H117.575C115.696 108.239 115.268 104.792 117.571 102.573C118.994 101.202 120.593 100.843 122.049 101.057C123.54 101.275 124.895 102.1 125.727 103.115L126.5 104.061L127.273 103.115C128.105 102.1 129.46 101.275 130.951 101.057Z" stroke="#212121" stroke-width="2"/>
<rect x="163" y="93" width="27" height="31" fill="#212121"/>
<path d="M170 108H182" stroke="#FCF5E5" stroke-width="2" stroke-linecap="round"/>
<path d="M176 114V102" stroke="#FCF5E5" stroke-width="2" stroke-linecap="round"/>
<rect x="43" y="43" width="94.2812" height="30" rx="3" fill="white"/>
<rect x="43.5" y="43.5" width="93.2812" height="29" rx="2.5" stroke="black" stroke-opacity="0.2"/>
<path d="M50.9375 53V61H49.9688V53H50.9375ZM55.1924 61.125C54.6299 61.125 54.1455 60.9922 53.7393 60.7266C53.333 60.4609 53.0205 60.0951 52.8018 59.6289C52.583 59.1628 52.4736 58.6302 52.4736 58.0312C52.4736 57.4219 52.5856 56.8841 52.8096 56.418C53.0361 55.9492 53.3512 55.5833 53.7549 55.3203C54.1611 55.0547 54.6351 54.9219 55.1768 54.9219C55.5986 54.9219 55.9788 55 56.3174 55.1562C56.6559 55.3125 56.9333 55.5312 57.1494 55.8125C57.3656 56.0937 57.4997 56.4219 57.5518 56.7969H56.6299C56.5596 56.5234 56.4033 56.2812 56.1611 56.0703C55.9215 55.8568 55.5986 55.75 55.1924 55.75C54.833 55.75 54.5179 55.8437 54.2471 56.0312C53.9788 56.2161 53.7692 56.4779 53.6182 56.8164C53.4697 57.1523 53.3955 57.5469 53.3955 58C53.3955 58.4635 53.4684 58.8672 53.6143 59.2109C53.7627 59.5547 53.971 59.8216 54.2393 60.0117C54.5101 60.2018 54.8278 60.2969 55.1924 60.2969C55.432 60.2969 55.6494 60.2552 55.8447 60.1719C56.04 60.0885 56.2054 59.9688 56.3408 59.8125C56.4762 59.6562 56.5726 59.4687 56.6299 59.25H57.5518C57.4997 59.6042 57.3708 59.9232 57.165 60.207C56.9619 60.4883 56.6924 60.7122 56.3564 60.8789C56.0231 61.043 55.6351 61.125 55.1924 61.125ZM61.3369 61.125C60.7952 61.125 60.32 60.9961 59.9111 60.7383C59.5049 60.4805 59.1872 60.1198 58.958 59.6562C58.7314 59.1927 58.6182 58.651 58.6182 58.0312C58.6182 57.4062 58.7314 56.8607 58.958 56.3945C59.1872 55.9284 59.5049 55.5664 59.9111 55.3086C60.32 55.0508 60.7952 54.9219 61.3369 54.9219C61.8786 54.9219 62.3525 55.0508 62.7588 55.3086C63.1676 55.5664 63.4854 55.9284 63.7119 56.3945C63.9411 56.8607 64.0557 57.4062 64.0557 58.0312C64.0557 58.651 63.9411 59.1927 63.7119 59.6562C63.4854 60.1198 63.1676 60.4805 62.7588 60.7383C62.3525 60.9961 61.8786 61.125 61.3369 61.125ZM61.3369 60.2969C61.7484 60.2969 62.0869 60.1914 62.3525 59.9805C62.6182 59.7695 62.8148 59.4922 62.9424 59.1484C63.07 58.8047 63.1338 58.4323 63.1338 58.0312C63.1338 57.6302 63.07 57.2565 62.9424 56.9102C62.8148 56.5638 62.6182 56.2839 62.3525 56.0703C62.0869 55.8568 61.7484 55.75 61.3369 55.75C60.9255 55.75 60.5869 55.8568 60.3213 56.0703C60.0557 56.2839 59.859 56.5638 59.7314 56.9102C59.6038 57.2565 59.54 57.6302 59.54 58.0312C59.54 58.4323 59.6038 58.8047 59.7314 59.1484C59.859 59.4922 60.0557 59.7695 60.3213 59.9805C60.5869 60.1914 60.9255 60.2969 61.3369 60.2969ZM66.3848 57.3906V61H65.4629V55H66.3535V55.9375H66.4316C66.5723 55.6328 66.7858 55.388 67.0723 55.2031C67.3587 55.0156 67.7285 54.9219 68.1816 54.9219C68.5879 54.9219 68.9434 55.0052 69.248 55.1719C69.5527 55.3359 69.7897 55.5859 69.959 55.9219C70.1283 56.2552 70.2129 56.6771 70.2129 57.1875V61H69.291V57.25C69.291 56.7786 69.1686 56.4115 68.9238 56.1484C68.679 55.8828 68.3431 55.75 67.916 55.75C67.6217 55.75 67.3587 55.8138 67.127 55.9414C66.8978 56.069 66.7168 56.2552 66.584 56.5C66.4512 56.7448 66.3848 57.0417 66.3848 57.3906ZM76.1475 56.3437L75.3193 56.5781C75.2673 56.4401 75.1904 56.306 75.0889 56.1758C74.9899 56.043 74.8545 55.9336 74.6826 55.8477C74.5107 55.7617 74.2907 55.7187 74.0225 55.7187C73.6553 55.7187 73.3493 55.8034 73.1045 55.9727C72.8623 56.1393 72.7412 56.3516 72.7412 56.6094C72.7412 56.8385 72.8245 57.0195 72.9912 57.1523C73.1579 57.2852 73.4183 57.3958 73.7725 57.4844L74.6631 57.7031C75.1995 57.8333 75.5993 58.0326 75.8623 58.3008C76.1253 58.5664 76.2568 58.9089 76.2568 59.3281C76.2568 59.6719 76.1579 59.9792 75.96 60.25C75.7646 60.5208 75.4912 60.7344 75.1396 60.8906C74.7881 61.0469 74.3792 61.125 73.9131 61.125C73.3011 61.125 72.7946 60.9922 72.3936 60.7266C71.9925 60.4609 71.7386 60.0729 71.6318 59.5625L72.5068 59.3437C72.5902 59.6667 72.7477 59.9089 72.9795 60.0703C73.2139 60.2318 73.5199 60.3125 73.8975 60.3125C74.3271 60.3125 74.6683 60.2214 74.9209 60.0391C75.1761 59.8542 75.3037 59.6328 75.3037 59.375C75.3037 59.1667 75.2308 58.9922 75.085 58.8516C74.9391 58.7083 74.7152 58.6016 74.4131 58.5312L73.4131 58.2969C72.8636 58.1667 72.46 57.9648 72.2021 57.6914C71.9469 57.4154 71.8193 57.0703 71.8193 56.6562C71.8193 56.3177 71.9144 56.0182 72.1045 55.7578C72.2972 55.4974 72.5589 55.293 72.8896 55.1445C73.223 54.9961 73.6006 54.9219 74.0225 54.9219C74.6162 54.9219 75.0824 55.0521 75.4209 55.3125C75.762 55.5729 76.0042 55.9167 76.1475 56.3437ZM83.4102 55V55.7812H80.1758V55H83.4102ZM81.1445 61V54.1719C81.1445 53.8281 81.2253 53.5417 81.3867 53.3125C81.5482 53.0833 81.7578 52.9115 82.0156 52.7969C82.2734 52.6823 82.5456 52.625 82.832 52.625C83.0586 52.625 83.2435 52.6432 83.3867 52.6797C83.5299 52.7161 83.6367 52.75 83.707 52.7812L83.4414 53.5781C83.3945 53.5625 83.3294 53.543 83.2461 53.5195C83.1654 53.4961 83.0586 53.4844 82.9258 53.4844C82.6211 53.4844 82.401 53.5612 82.2656 53.7148C82.1328 53.8685 82.0664 54.0937 82.0664 54.3906V61H81.1445ZM86.8926 61.125C86.3509 61.125 85.8757 60.9961 85.4668 60.7383C85.0605 60.4805 84.7428 60.1198 84.5137 59.6562C84.2871 59.1927 84.1738 58.651 84.1738 58.0312C84.1738 57.4062 84.2871 56.8607 84.5137 56.3945C84.7428 55.9284 85.0605 55.5664 85.4668 55.3086C85.8757 55.0508 86.3509 54.9219 86.8926 54.9219C87.4342 54.9219 87.9082 55.0508 88.3145 55.3086C88.7233 55.5664 89.041 55.9284 89.2676 56.3945C89.4967 56.8607 89.6113 57.4062 89.6113 58.0312C89.6113 58.651 89.4967 59.1927 89.2676 59.6562C89.041 60.1198 88.7233 60.4805 88.3145 60.7383C87.9082 60.9961 87.4342 61.125 86.8926 61.125ZM86.8926 60.2969C87.304 60.2969 87.6426 60.1914 87.9082 59.9805C88.1738 59.7695 88.3704 59.4922 88.498 59.1484C88.6257 58.8047 88.6895 58.4323 88.6895 58.0312C88.6895 57.6302 88.6257 57.2565 88.498 56.9102C88.3704 56.5638 88.1738 56.2839 87.9082 56.0703C87.6426 55.8568 87.304 55.75 86.8926 55.75C86.4811 55.75 86.1426 55.8568 85.877 56.0703C85.6113 56.2839 85.4147 56.5638 85.2871 56.9102C85.1595 57.2565 85.0957 57.6302 85.0957 58.0312C85.0957 58.4323 85.1595 58.8047 85.2871 59.1484C85.4147 59.4922 85.6113 59.7695 85.877 59.9805C86.1426 60.1914 86.4811 60.2969 86.8926 60.2969ZM91.0186 61V55H91.9092V55.9062H91.9717C92.0811 55.6094 92.279 55.3685 92.5654 55.1836C92.8519 54.9987 93.1748 54.9062 93.5342 54.9062C93.6019 54.9062 93.6865 54.9076 93.7881 54.9102C93.8896 54.9128 93.9665 54.9167 94.0186 54.9219V55.8594C93.9873 55.8516 93.9157 55.8398 93.8037 55.8242C93.6943 55.806 93.5785 55.7969 93.4561 55.7969C93.1644 55.7969 92.904 55.8581 92.6748 55.9805C92.4482 56.1003 92.2686 56.2669 92.1357 56.4805C92.0055 56.6914 91.9404 56.9323 91.9404 57.2031V61H91.0186ZM100.721 61.125C100.143 61.125 99.6439 60.9974 99.2246 60.7422C98.8079 60.4844 98.4863 60.125 98.2598 59.6641C98.0358 59.2005 97.9238 58.6615 97.9238 58.0469C97.9238 57.4323 98.0358 56.8906 98.2598 56.4219C98.4863 55.9505 98.8014 55.5833 99.2051 55.3203C99.6113 55.0547 100.085 54.9219 100.627 54.9219C100.939 54.9219 101.248 54.974 101.553 55.0781C101.857 55.1823 102.135 55.3516 102.385 55.5859C102.635 55.8177 102.834 56.125 102.982 56.5078C103.131 56.8906 103.205 57.362 103.205 57.9219V58.3125H98.5801V57.5156H102.268C102.268 57.1771 102.2 56.875 102.064 56.6094C101.932 56.3437 101.742 56.1341 101.494 55.9805C101.249 55.8268 100.96 55.75 100.627 55.75C100.26 55.75 99.9421 55.8411 99.6738 56.0234C99.4082 56.2031 99.2038 56.4375 99.0605 56.7266C98.9173 57.0156 98.8457 57.3255 98.8457 57.6562V58.1875C98.8457 58.6406 98.9238 59.0247 99.0801 59.3398C99.2389 59.6523 99.459 59.8906 99.7402 60.0547C100.021 60.2161 100.348 60.2969 100.721 60.2969C100.963 60.2969 101.182 60.263 101.377 60.1953C101.575 60.125 101.745 60.0208 101.889 59.8828C102.032 59.7422 102.143 59.5677 102.221 59.3594L103.111 59.6094C103.018 59.9115 102.86 60.1771 102.639 60.4062C102.417 60.6328 102.144 60.8099 101.818 60.9375C101.493 61.0625 101.127 61.125 100.721 61.125ZM105.134 55L106.571 57.4531L108.009 55H109.071L107.134 58L109.071 61H108.009L106.571 58.6719L105.134 61H104.071L105.978 58L104.071 55H105.134ZM110.387 63.25V55H111.277V55.9531H111.387C111.454 55.849 111.548 55.7161 111.668 55.5547C111.79 55.3906 111.965 55.2448 112.191 55.1172C112.421 54.987 112.73 54.9219 113.121 54.9219C113.626 54.9219 114.072 55.0482 114.457 55.3008C114.842 55.5534 115.143 55.9115 115.359 56.375C115.576 56.8385 115.684 57.3854 115.684 58.0156C115.684 58.651 115.576 59.2018 115.359 59.668C115.143 60.1315 114.844 60.4909 114.461 60.7461C114.078 60.9987 113.637 61.125 113.137 61.125C112.751 61.125 112.443 61.0612 112.211 60.9336C111.979 60.8034 111.801 60.6562 111.676 60.4922C111.551 60.3255 111.454 60.1875 111.387 60.0781H111.309V63.25H110.387ZM111.293 58C111.293 58.4531 111.359 58.8529 111.492 59.1992C111.625 59.543 111.819 59.8125 112.074 60.0078C112.329 60.2005 112.642 60.2969 113.012 60.2969C113.397 60.2969 113.719 60.1953 113.977 59.9922C114.237 59.7865 114.432 59.5104 114.563 59.1641C114.695 58.8151 114.762 58.4271 114.762 58C114.762 57.5781 114.697 57.1979 114.566 56.8594C114.439 56.5182 114.245 56.2487 113.984 56.0508C113.727 55.8503 113.402 55.75 113.012 55.75C112.637 55.75 112.322 55.8451 112.066 56.0352C111.811 56.2227 111.618 56.4857 111.488 56.8242C111.358 57.1602 111.293 57.5521 111.293 58ZM119.527 61.125C118.986 61.125 118.51 60.9961 118.102 60.7383C117.695 60.4805 117.378 60.1198 117.148 59.6562C116.922 59.1927 116.809 58.651 116.809 58.0312C116.809 57.4062 116.922 56.8607 117.148 56.3945C117.378 55.9284 117.695 55.5664 118.102 55.3086C118.51 55.0508 118.986 54.9219 119.527 54.9219C120.069 54.9219 120.543 55.0508 120.949 55.3086C121.358 55.5664 121.676 55.9284 121.902 56.3945C122.132 56.8607 122.246 57.4062 122.246 58.0312C122.246 58.651 122.132 59.1927 121.902 59.6562C121.676 60.1198 121.358 60.4805 120.949 60.7383C120.543 60.9961 120.069 61.125 119.527 61.125ZM119.527 60.2969C119.939 60.2969 120.277 60.1914 120.543 59.9805C120.809 59.7695 121.005 59.4922 121.133 59.1484C121.26 58.8047 121.324 58.4323 121.324 58.0312C121.324 57.6302 121.26 57.2565 121.133 56.9102C121.005 56.5638 120.809 56.2839 120.543 56.0703C120.277 55.8568 119.939 55.75 119.527 55.75C119.116 55.75 118.777 55.8568 118.512 56.0703C118.246 56.2839 118.049 56.5638 117.922 56.9102C117.794 57.2565 117.73 57.6302 117.73 58.0312C117.73 58.4323 117.794 58.8047 117.922 59.1484C118.049 59.4922 118.246 59.7695 118.512 59.9805C118.777 60.1914 119.116 60.2969 119.527 60.2969ZM123.653 61V55H124.544V55.9062H124.606C124.716 55.6094 124.914 55.3685 125.2 55.1836C125.487 54.9987 125.81 54.9062 126.169 54.9062C126.237 54.9062 126.321 54.9076 126.423 54.9102C126.524 54.9128 126.601 54.9167 126.653 54.9219V55.8594C126.622 55.8516 126.55 55.8398 126.438 55.8242C126.329 55.806 126.213 55.7969 126.091 55.7969C125.799 55.7969 125.539 55.8581 125.31 55.9805C125.083 56.1003 124.903 56.2669 124.771 56.4805C124.64 56.6914 124.575 56.9323 124.575 57.2031V61H123.653ZM130.731 55V55.7812H127.622V55H130.731ZM128.528 53.5625H129.45V59.2812C129.45 59.5417 129.488 59.737 129.563 59.8672C129.642 59.9948 129.741 60.0807 129.86 60.125C129.983 60.1667 130.112 60.1875 130.247 60.1875C130.349 60.1875 130.432 60.1823 130.497 60.1719C130.562 60.1589 130.614 60.1484 130.653 60.1406L130.841 60.9687C130.778 60.9922 130.691 61.0156 130.579 61.0391C130.467 61.0651 130.325 61.0781 130.153 61.0781C129.893 61.0781 129.638 61.0221 129.388 60.9102C129.14 60.7982 128.935 60.6276 128.771 60.3984C128.609 60.1693 128.528 59.8802 128.528 59.5312V53.5625Z" fill="black"/>
</svg>
